<?xml version="1.0" encoding="UTF-8"?>
<svg width="270px" height="90px" viewBox="0 0 270 90" version="1.1" xmlns="http://www.w3.org/2000/svg" xmlns:xlink="http://www.w3.org/1999/xlink">
    <title>mass-effect-footer-logo</title>
    <defs>
        <polygon id="path-1" points="0 0.00881999947 67.781276 0.00881999947 67.781276 37.4872178 0 37.4872178"></polygon>
    </defs>
    <g id="mass-effect-footer-logo" stroke="none" stroke-width="1" fill="none" fill-rule="evenodd">
        <g id="Group-23" transform="translate(10.000000, 12.000000)">
            <polygon id="Fill-1" fill="#FFFFFF" points="241.187206 62.1833963 241.187206 62.6399963 242.027206 62.6399963 242.027206 64.7909961 242.596606 64.7909961 242.596606 62.6399963 243.442005 62.6399963 243.442005 62.1833963"></polygon>
            <polygon id="Fill-2" fill="#FFFFFF" points="245.845785 62.1774563 245.180385 64.1784562 245.179185 64.1736562 245.177385 64.1784562 244.511985 62.1774563 243.710385 62.1774563 243.710385 64.7910561 244.249185 64.7910561 244.207185 62.7582563 244.873185 64.7910561 245.484585 64.7910561 246.151785 62.7582563 246.108585 64.7910561 246.647985 64.7910561 246.647985 62.1774563"></polygon>
            <g id="Group-22" transform="translate(0.000000, 0.591600)">
                <path d="M133.520212,50.006397 L133.520212,60.0311964 C133.520212,63.0113962 135.048412,64.1993962 138.712012,64.1993962 L158.994411,64.1993962 L158.994411,60.2195964 L141.767212,60.2195964 C141.082612,60.2195964 140.740612,59.9147964 140.740612,59.3069965 L140.740612,57.0167966 L158.994411,57.0167966 L158.994411,53.0315968 L140.740612,53.0315968 L140.740612,50.746197 C140.740612,50.137797 141.082612,49.835397 141.767212,49.835397 L158.994411,49.835397 L158.994411,45.8399973 L138.712012,45.8399973 C135.048412,45.8399973 133.520212,47.0273972 133.520212,50.006397 L133.520212,50.006397 Z M89.0206147,50.006397 L89.0206147,64.1993962 L96.2422143,64.1993962 L96.2422143,57.0167966 L114.495413,57.0167966 L114.495413,53.0315968 L96.2422143,53.0315968 L96.2422143,50.746197 C96.2422143,50.137797 96.5842142,49.835397 97.2688142,49.835397 L114.495413,49.835397 L114.495413,45.8399973 L94.2136144,45.8399973 C90.5488146,45.8399973 89.0206147,47.0273972 89.0206147,50.006397 L89.0206147,50.006397 Z M44.5216173,50.006397 L44.5216173,64.1993962 L51.7426169,64.1993962 L51.7426169,57.0167966 L69.9958158,57.0167966 L69.9958158,53.0315968 L51.7426169,53.0315968 L51.7426169,50.746197 C51.7426169,50.137797 52.0846169,49.835397 52.7692169,49.835397 L69.9958158,49.835397 L69.9958158,45.8399973 L49.714017,45.8399973 C46.0498173,45.8399973 44.5216173,47.0273972 44.5216173,50.006397 L44.5216173,50.006397 Z M178.029409,50.006397 L178.029409,60.0317964 C178.029409,63.0119962 179.554609,64.1999962 183.218209,64.1999962 L203.506008,64.1999962 L203.506008,60.2201964 L186.275809,60.2201964 C185.591809,60.2201964 185.250409,59.9153964 185.250409,59.3075965 L185.250409,50.746197 C185.250409,50.137797 185.591809,49.835397 186.275809,49.835397 L203.506008,49.835397 L203.506008,45.8393973 L183.218209,45.8393973 C179.554609,45.8393973 178.029409,47.0273972 178.029409,50.006397 L178.029409,50.006397 Z M218.607407,45.8441973 L218.607407,49.835397 L229.021006,49.835397 L229.021006,64.1993962 L236.244406,64.1993962 L236.244406,49.835397 L246.655605,49.835397 L246.655605,45.8441973 L218.607407,45.8441973 Z M0.0124199993,50.006397 L0.0124199993,60.0311964 C0.0124199993,63.0113962 1.54061991,64.1993962 5.20481969,64.1993962 L25.4866185,64.1993962 L25.4866185,60.2195964 L8.25941951,60.2195964 C7.57541955,60.2195964 7.23281957,59.9147964 7.23281957,59.3069965 L7.23281957,57.0167966 L25.4866185,57.0167966 L25.4866185,53.0315968 L7.23281957,53.0315968 L7.23281957,50.746197 C7.23281957,50.137797 7.57541955,49.835397 8.25941951,49.835397 L25.4866185,49.835397 L25.4866185,45.8399973 L5.20481969,45.8399973 C1.54061991,45.8399973 0.0124199993,47.0273972 0.0124199993,50.006397 L0.0124199993,50.006397 Z" id="Fill-3" fill="#FFFFFF"></path>
                <path d="M98.6243941,14.9122791 L100.948194,10.9192793 L102.992994,14.4322791 C107.776794,13.9360792 112.658993,13.5124792 117.634793,13.1668792 L109.271993,0.0112799993 L92.6255945,0.0112799993 L81.7139951,17.177279 C87.2057948,16.328879 92.8469945,15.5722791 98.6243941,14.9122791" id="Fill-5" fill="#FFFFFF"></path>
                <g id="Group-9">
                    <mask id="mask-2" fill="white">
                        <use xlink:href="#path-1"></use>
                    </mask>
                    <g id="Clip-8"></g>
                    <path d="M15.4414791,32.5516181 L14.7466791,17.098619 L21.9298787,30.6148182 C30.6346782,28.0714183 39.8938776,25.6036185 49.716477,23.3416186 L53.0344768,17.098619 L52.7854769,22.6426187 C57.6472766,21.5578187 62.6482763,20.5282188 67.781276,19.5646188 L67.781276,0.00881999947 L47.4220772,0.00881999947 L33.890878,26.1310184 L20.3590788,0.00881999947 L-0.000119999993,0.00881999947 L-0.000119999993,37.4872178 C4.92527971,35.8486179 10.0696794,34.192018 15.4414791,32.5516181" id="Fill-7" fill="#FFFFFF" mask="url(#mask-2)"></path>
                </g>
                <path d="M147.659451,12.1231793 C147.972051,10.3915794 150.831651,9.9967794 153.264651,9.96317941 L153.264651,9.95597941 L187.226449,9.95597941 L187.226449,0.0109799993 L152.465451,0.0109799993 C143.455851,0.0109799993 132.011452,1.92137989 131.992852,12.4135793 C137.121052,12.2287793 142.338052,12.1237793 147.659451,12.1231793" id="Fill-10" fill="#FFFFFF"></path>
                <path d="M207.075888,12.1226393 C207.388488,10.3916394 210.248087,9.9968394 212.681087,9.96323941 L212.681087,9.95603941 L246.642885,9.95603941 L246.642885,0.0110399993 L211.881887,0.0110399993 C202.958088,0.0110399993 191.650489,1.89023989 191.419489,12.1226393 L207.075888,12.1226393 Z" id="Fill-12" fill="#FFFFFF"></path>
                <path d="M0,38.9878777 L0,39.7792776 L15.7661991,39.7792776 L15.5135991,34.156678 C10.1021994,35.7850779 4.94699971,37.4110778 0,38.9878777" id="Fill-14" fill="#FFFFFF"></path>
                <path d="M228.771946,14.9257191 L212.681147,14.9149191 C212.563547,14.9131191 212.444147,14.9101191 212.325947,14.9065191 L191.649349,14.9065191 C193.309548,23.1835186 203.447748,24.8341185 211.669547,24.8623185 L227.759746,24.8737185 C230.336146,24.9091185 233.396146,25.3411185 233.396146,27.3451184 C233.396146,29.3503183 230.336146,29.7889182 227.759746,29.8249182 L227.759746,29.8327182 L193.797348,29.8327182 L193.797348,39.7771176 L228.558946,39.7771176 C237.574546,39.7771176 249.032145,37.8643177 249.032145,27.3505184 C249.032145,16.918919 237.754546,14.9563191 228.771946,14.9257191" id="Fill-16" fill="#FFFFFF"></path>
                <path d="M22.6901386,32.0444981 L26.7995384,39.7772976 L40.9817376,39.7772976 L48.6401371,25.3664985 C39.3341377,27.4634984 30.7295382,29.7344982 22.6901386,32.0444981" id="Fill-18" fill="#FFFFFF"></path>
                <path d="M169.35557,14.9257191 L147.706371,14.9065191 C142.415572,14.9065191 137.275372,14.9845191 132.273772,15.1303191 C134.067772,23.2165186 144.104571,24.8347185 152.253171,24.8623185 L168.34337,24.8737185 C170.91917,24.9091185 173.97977,25.3411185 173.97977,27.3451184 C173.97977,29.3503183 170.91917,29.7889182 168.34337,29.8249182 L168.34337,29.8327182 L134.380972,29.8327182 L134.380972,39.5119176 L119.231573,15.6787191 C114.114173,15.963119 109.151573,16.320119 104.337174,16.742519 L106.793574,20.9629188 L95.1043743,20.9629188 L97.1581742,17.433119 C91.2907746,18.0439189 85.6471749,18.7489189 80.2153752,19.5343188 L67.780976,39.0967177 L67.780976,21.5263187 C62.5549763,22.4461187 57.5371766,23.4343186 52.7029769,24.4729185 L52.0147769,39.7795176 L84.154375,39.7771176 L89.3125747,30.9139182 L112.584773,30.9139182 L117.742373,39.7771176 L169.14257,39.7771176 C178.158769,39.7771176 189.616369,37.8643177 189.616369,27.3505184 C189.616369,16.918919 178.338169,14.9563191 169.35557,14.9257191" id="Fill-20" fill="#FFFFFF"></path>
            </g>
        </g>
    </g>
</svg>